<?xml version="1.0" standalone="no"?>
<!DOCTYPE svg PUBLIC "-//W3C//DTD SVG 20010904//EN"
 "http://www.w3.org/TR/2001/REC-SVG-20010904/DTD/svg10.dtd">
<svg version="1.0" xmlns="http://www.w3.org/2000/svg"
 width="1024.000000pt" height="727.200000pt" viewBox="0 0 1024.000000 727.200000"
 preserveAspectRatio="xMidYMid meet">
<metadata>
Created by potrace 1.13, written by Peter Selinger 2001-2015
</metadata>
<g transform="translate(0.000000,727.200000) scale(0.080000,-0.080000)"
fill="#000000" stroke="none">
<path d="M6040 8864 c-256 -12 -592 -55 -780 -101 -214 -52 -387 -103 -520
-153 -41 -15 -100 -37 -130 -48 -111 -41 -154 -63 -139 -74 10 -7 8 -8 -7 -3
-23 6 -76 -13 -69 -25 2 -4 -6 -5 -19 -3 -13 3 -30 -2 -39 -11 -8 -9 -18 -16
-21 -16 -8 0 -82 -37 -171 -85 -38 -21 -96 -51 -127 -68 -32 -17 -68 -40 -80
-51 -12 -12 -25 -21 -28 -20 -5 1 -24 -9 -92 -53 -21 -12 -42 -23 -47 -23 -5
0 -11 -4 -13 -8 -1 -5 -70 -58 -153 -118 -153 -112 -167 -123 -264 -208 -151
-131 -240 -220 -228 -229 8 -6 7 -7 -4 -4 -10 3 -31 -9 -55 -34 -33 -33 -36
-41 -24 -50 12 -8 10 -9 -6 -4 -16 4 -28 -3 -47 -29 -14 -18 -23 -37 -19 -41
4 -5 2 -5 -4 -2 -10 6 -105 -91 -127 -129 -5 -8 -26 -34 -48 -57 -21 -23 -39
-48 -39 -54 0 -7 -4 -13 -9 -13 -8 0 -101 -133 -101 -144 0 -3 -10 -16 -22
-29 -13 -13 -29 -32 -37 -44 -91 -137 -231 -372 -231 -388 0 -7 -4 -15 -9 -17
-15 -5 -121 -233 -111 -236 6 -2 10 -13 10 -25 -1 -21 -1 -21 -14 -4 -13 17
-15 15 -26 -20 -6 -21 -26 -67 -42 -103 -45 -95 -87 -214 -158 -450 -26 -87
-43 -155 -70 -275 -12 -55 -25 -116 -30 -135 -4 -19 -13 -73 -20 -120 -6 -47
-15 -107 -20 -135 -15 -82 -31 -320 -34 -485 -3 -249 9 -401 60 -748 4 -24 13
-46 21 -49 9 -4 11 -8 4 -12 -9 -6 -2 -45 39 -221 20 -85 61 -215 70 -224 5
-5 10 -21 10 -33 0 -28 36 -145 58 -188 8 -16 16 -41 18 -55 2 -14 12 -46 22
-70 30 -71 35 -85 34 -92 -1 -5 2 -8 7 -8 5 0 11 -13 14 -29 3 -15 17 -53 31
-84 15 -31 26 -60 26 -65 0 -5 7 -15 15 -22 8 -7 15 -20 15 -29 0 -9 13 -43
30 -76 16 -33 30 -66 30 -72 0 -7 5 -13 10 -13 6 0 10 -6 10 -12 0 -12 59
-137 70 -148 6 -6 60 -104 80 -147 15 -32 30 -43 30 -23 0 6 5 10 11 10 5 0 7
-5 3 -12 -4 -6 -9 -56 -11 -111 -5 -157 30 -272 103 -336 48 -43 77 -53 150
-53 96 -1 165 48 213 152 22 49 25 68 25 175 1 158 -15 204 -104 300 -36 38
-92 111 -125 160 -33 50 -64 92 -68 94 -5 2 -13 15 -19 30 -6 15 -12 21 -15
13 -3 -6 -9 -12 -15 -12 -7 0 -6 5 1 14 8 10 6 24 -9 57 -31 65 -78 152 -87
158 -4 3 -10 15 -11 26 -2 11 -14 40 -26 65 -13 25 -31 68 -41 95 -9 28 -21
59 -25 70 -24 58 -82 246 -90 290 -4 22 -17 85 -28 140 -24 115 -45 265 -64
445 -19 189 -17 858 4 1025 18 139 61 395 78 458 5 20 14 54 20 75 35 137 134
429 181 529 10 24 19 46 19 49 0 3 15 38 34 78 18 39 44 94 56 121 13 28 35
68 48 90 14 22 40 68 58 102 18 34 42 76 53 92 12 16 21 32 21 35 0 3 18 31
40 63 22 32 46 67 53 77 109 167 328 430 487 583 38 37 43 45 30 54 -13 9 -12
10 2 5 17 -5 33 7 121 87 23 21 70 62 104 90 42 35 58 54 50 60 -8 5 -7 7 5 5
15 -3 96 51 218 145 27 20 52 37 55 37 13 0 195 124 195 133 0 5 7 7 15 3 8
-3 15 -1 15 4 0 4 15 14 34 20 19 6 36 14 38 18 2 4 33 22 70 41 37 18 70 36
73 40 4 3 10 6 13 7 24 3 172 81 165 87 -4 5 1 5 10 1 10 -4 30 -1 45 6 209
96 650 225 847 247 28 3 65 12 82 20 18 8 39 13 47 10 8 -3 84 1 168 9 190 19
547 21 733 5 151 -14 327 -40 470 -72 50 -11 122 -27 160 -36 39 -8 87 -21
109 -29 21 -8 41 -13 44 -10 2 3 14 -1 26 -9 11 -8 32 -15 46 -15 14 0 30 -4
35 -8 6 -5 39 -19 75 -31 36 -12 79 -29 95 -36 17 -7 57 -23 90 -36 59 -22
256 -110 285 -128 8 -5 49 -27 90 -48 41 -21 89 -48 105 -59 17 -12 46 -30 65
-41 20 -10 82 -50 138 -88 57 -39 110 -74 119 -80 9 -5 29 -22 45 -36 17 -15
42 -33 56 -40 14 -8 46 -33 71 -56 24 -24 51 -43 58 -43 8 0 11 -5 7 -12 -5
-7 0 -9 14 -6 13 4 19 2 16 -6 -5 -15 73 -79 88 -70 7 4 8 3 4 -5 -10 -15 61
-84 76 -75 6 4 8 3 5 -3 -3 -5 42 -59 102 -119 59 -60 144 -155 190 -212 45
-56 87 -100 92 -97 5 4 6 0 3 -8 -3 -8 1 -21 8 -28 8 -8 44 -57 81 -109 37
-52 73 -102 80 -110 8 -8 17 -22 20 -30 4 -8 17 -31 29 -51 62 -99 90 -151 84
-157 -19 -18 -275 60 -429 132 -240 111 -464 298 -797 666 -58 63 -175 186
-261 273 -152 155 -156 158 -194 155 -21 -2 -40 -9 -43 -16 -2 -7 83 -99 190
-205 209 -206 317 -322 425 -457 38 -47 75 -85 83 -85 11 0 109 -104 171 -181
176 -221 309 -498 389 -809 16 -60 29 -101 29 -89 2 44 -31 256 -65 422 -19
96 -33 177 -30 180 5 4 101 -71 161 -125 52 -47 52 -47 82 -13 57 63 153 44
196 -40 23 -45 17 -103 -14 -137 l-23 -24 71 -67 c69 -65 71 -69 78 -125 15
-120 -11 -200 -82 -254 -41 -30 -78 -42 -198 -60 l-50 -8 75 -3 c233 -10 370
90 370 270 0 72 13 68 29 -10 50 -241 -81 -358 -378 -338 -53 3 -134 13 -181
21 -147 26 -131 11 38 -35 225 -61 412 -77 521 -44 71 21 135 80 156 145 17
50 35 73 35 43 0 -9 11 -48 25 -86 14 -38 23 -73 20 -78 -3 -5 1 -26 9 -47 13
-37 39 -148 51 -225 7 -48 4 -48 -104 -1 -49 21 -191 62 -336 98 -137 35 -267
70 -287 79 -21 9 -41 16 -45 16 -12 0 59 -69 117 -113 30 -23 57 -44 60 -47
15 -15 92 -59 140 -80 93 -39 139 -50 300 -71 91 -11 160 -25 168 -33 12 -11
36 -180 46 -315 1 -19 8 -37 14 -39 7 -2 17 -12 22 -23 8 -15 7 -17 -5 -13 -8
4 -15 10 -15 15 0 5 -10 9 -22 9 -11 0 -58 26 -102 58 -45 32 -157 110 -251
173 -256 171 -398 282 -519 403 -60 60 -107 102 -103 93 18 -46 140 -207 223
-294 52 -54 94 -99 94 -102 0 -18 -180 129 -242 198 -96 107 -208 288 -208
335 0 28 -292 217 -489 315 -119 60 -282 117 -379 131 -41 7 -75 10 -78 8 -2
-3 35 -20 84 -38 232 -88 475 -225 710 -400 77 -57 134 -121 113 -128 -5 -2
-62 24 -127 57 -188 95 -289 112 -415 67 -62 -21 -157 -82 -188 -119 -19 -23
-9 -21 52 10 70 35 140 53 212 53 77 0 138 -31 235 -120 123 -112 172 -131
276 -110 l57 12 25 -33 c56 -73 202 -214 287 -278 117 -87 205 -141 504 -313
45 -25 169 -111 206 -141 l30 -25 0 -122 c0 -113 -1 -119 -14 -88 -8 18 -15
70 -15 115 -1 45 -5 86 -10 90 -14 14 -26 -22 -26 -77 0 -68 14 -118 77 -285
28 -71 55 -151 61 -177 16 -65 15 -152 -3 -195 -8 -20 -14 -38 -11 -40 2 -2
28 17 59 42 31 25 58 45 61 45 24 0 -75 -140 -147 -207 -60 -57 -84 -67 -72
-30 17 55 17 222 1 287 -40 155 -151 326 -312 481 -90 86 -252 219 -266 219
-5 0 16 -32 47 -72 150 -197 204 -421 176 -728 -7 -69 -14 -167 -18 -218 l-6
-92 -65 -32 c-87 -41 -171 -127 -307 -315 -289 -396 -481 -556 -782 -654 -40
-12 -71 -24 -69 -27 14 -14 301 57 441 110 342 127 640 340 922 661 55 63 67
71 134 93 203 68 412 198 570 354 121 120 178 197 242 325 64 129 99 254 146
515 59 334 68 451 101 1355 15 396 47 695 75 695 23 0 29 22 11 35 -16 13 -16
25 1 88 2 9 11 17 18 17 22 0 29 20 13 36 -20 20 -11 72 16 86 29 15 29 14 15
36 -19 30 4 102 32 102 26 0 35 26 15 45 -13 14 -14 21 -3 48 10 24 22 34 50
41 42 11 47 28 15 50 l-22 16 20 47 c18 43 23 48 62 56 46 9 62 28 42 52 -18
21 -105 19 -215 -5 -284 -63 -534 -192 -829 -431 -182 -147 -280 -243 -136
-134 141 107 317 221 326 212 2 -2 -42 -36 -97 -76 -56 -41 -156 -119 -223
-175 -67 -55 -132 -107 -145 -114 -21 -12 -21 -11 -12 7 15 26 14 41 -2 41 -7
0 -25 24 -40 53 -28 54 -38 71 -72 122 -11 17 -28 47 -39 67 -10 20 -27 46
-37 57 -10 11 -28 38 -40 60 -11 23 -32 51 -45 63 -13 13 -24 28 -24 34 0 6
-13 26 -30 45 -16 19 -44 55 -61 82 -17 26 -35 44 -40 41 -5 -3 -8 -2 -7 3 4
14 -34 63 -49 63 -8 0 -11 5 -8 10 8 13 -14 42 -25 35 -4 -3 -11 5 -14 18 -7
25 -61 87 -76 87 -5 0 -10 6 -10 13 0 14 -285 304 -295 299 -3 -1 -17 11 -32
28 -14 17 -32 29 -39 26 -8 -3 -11 0 -8 8 3 7 -5 20 -18 28 -13 9 -35 26 -49
39 -15 13 -35 31 -45 39 -79 63 -103 80 -113 80 -6 0 -11 6 -11 14 0 7 -8 16
-17 20 -10 3 -45 26 -78 51 -33 25 -94 67 -135 94 -41 27 -82 55 -91 62 -8 8
-33 23 -55 34 -21 10 -46 24 -54 31 -8 6 -51 31 -95 54 -44 23 -108 58 -142
77 -35 19 -63 31 -63 28 0 -3 -10 1 -22 9 -12 9 -31 16 -42 16 -11 0 -16 3
-13 7 12 11 -307 144 -438 182 -33 10 -67 21 -75 24 -73 32 -318 98 -365 99
-16 0 -35 4 -40 9 -21 16 -323 69 -395 69 -25 0 -40 -5 -40 -12 0 -9 -3 -10
-8 -2 -14 22 -49 32 -133 37 -123 9 -461 15 -549 11z m4540 -2128 c0 -2 -51
-42 -112 -88 -62 -47 -150 -117 -196 -156 -86 -75 -121 -91 -101 -49 16 34
242 204 363 274 43 24 46 25 46 19z m5 -128 c-11 -6 -22 -14 -25 -17 -3 -3
-41 -33 -85 -66 -43 -33 -114 -93 -157 -132 -77 -72 -98 -85 -98 -60 0 36 324
287 370 286 10 0 9 -3 -5 -11z m35 -102 c0 -2 -35 -30 -77 -62 -43 -32 -120
-98 -171 -148 -51 -49 -95 -87 -98 -83 -14 13 11 50 64 94 31 27 66 56 77 66
21 20 193 137 201 137 2 0 4 -2 4 -4z m-56 -171 c-64 -49 -204 -183 -204 -193
0 -4 12 -20 25 -35 l25 -28 80 70 c44 38 97 79 118 90 l37 22 -35 -32 c-19
-17 -68 -63 -108 -102 l-72 -70 17 -26 c109 -166 202 -350 276 -546 48 -129
65 -191 50 -182 -6 4 -18 28 -28 54 -55 147 -196 401 -347 624 -54 80 -98 153
-98 162 0 8 -4 19 -10 22 -5 3 -10 1 -10 -6 0 -7 -2 -10 -5 -8 -8 8 7 49 18
49 6 0 18 -7 27 -15 15 -14 22 -10 75 38 79 71 195 157 213 157 8 0 -12 -20
-44 -45z m-352 -284 c-11 -7 -9 -13 9 -30 12 -11 20 -23 17 -26 -2 -3 -15 6
-27 19 -23 24 -21 46 2 46 8 0 8 -3 -1 -9z m250 -278 c57 -65 201 -366 267
-558 52 -149 50 -186 -2 -46 -50 136 -127 295 -194 403 -30 48 -66 113 -81
145 -14 32 -28 61 -30 66 -7 15 25 6 40 -10z m223 -1264 c63 -186 72 -419 21
-575 -14 -45 -34 -88 -43 -95 -15 -12 -16 -12 -10 4 3 9 14 54 23 99 20 99 14
322 -11 433 -9 39 -22 104 -30 145 -7 41 -17 84 -21 95 -6 17 -3 15 19 -6 16
-15 38 -59 52 -100z"/>
<path d="M6290 7071 c-151 -44 -468 -134 -705 -201 -236 -67 -434 -124 -439
-127 -7 -5 158 -78 234 -103 14 -5 113 -43 219 -84 l195 -77 190 67 c105 36
261 90 346 120 85 29 295 102 466 161 171 60 312 113 313 118 3 11 -29 24
-319 135 -101 38 -193 70 -205 70 -11 -1 -144 -36 -295 -79z"/>
<path d="M7103 6913 c-10 -3 -13 -62 -13 -244 0 -131 3 -239 8 -239 4 0 15 7
24 14 16 12 17 32 11 245 -3 127 -9 231 -12 230 -3 0 -12 -3 -18 -6z"/>
<path d="M7000 6876 l-65 -23 -7 -99 c-10 -142 -8 -403 3 -410 5 -3 39 11 74
31 l65 36 0 244 c0 135 -1 245 -2 245 -2 -1 -32 -11 -68 -24z"/>
<path d="M6795 6804 c-49 -19 -109 -41 -132 -50 l-43 -16 0 -289 c0 -159 2
-289 5 -289 3 0 66 35 140 77 91 52 137 84 141 97 9 39 -1 499 -11 502 -5 1
-50 -13 -100 -32z"/>
<path d="M6560 6720 c-14 -5 -74 -26 -135 -48 l-110 -40 -6 -158 c-9 -239 -10
-482 -1 -488 4 -2 25 7 47 20 22 14 83 48 136 76 l96 52 7 290 c3 159 3 293
-1 296 -5 4 -19 4 -33 0z"/>
<path d="M5136 6703 c-9 -9 -7 -686 2 -700 9 -14 623 -313 643 -313 5 0 9 161
9 379 0 294 -3 380 -12 384 -7 3 -132 53 -278 112 -146 59 -286 115 -311 125
-26 11 -50 16 -53 13z"/>
<path d="M6170 6581 l-105 -36 -3 -353 c-1 -193 0 -352 3 -352 8 0 162 88 198
113 l28 19 -6 322 c-4 176 -7 322 -8 322 -1 1 -49 -15 -107 -35z"/>
<path d="M5920 6494 c-52 -19 -98 -40 -102 -47 -9 -15 -10 -734 -1 -740 5 -3
42 15 83 39 41 24 89 52 107 61 18 9 33 21 35 27 2 6 2 165 0 354 -2 260 -6
342 -15 341 -7 0 -55 -16 -107 -35z"/>
<path d="M8884 6486 c59 -184 86 -318 86 -422 0 -116 -27 -164 -91 -164 -15 0
-20 -3 -13 -10 18 -18 178 -80 207 -80 37 0 67 32 67 73 0 70 -58 232 -145
411 -62 125 -123 232 -111 192z"/>
<path d="M8885 6360 c25 -117 36 -224 31 -286 -11 -141 -28 -154 -171 -130
-54 9 -99 15 -101 13 -7 -7 151 -37 194 -37 32 0 49 7 73 28 30 27 32 34 37
108 3 58 -1 102 -16 164 -19 78 -59 198 -47 140z"/>
<path d="M9386 6229 c-34 -41 -36 -72 -1 -35 57 62 157 1 140 -87 -6 -30 -5
-31 10 -13 8 11 15 39 15 64 0 93 -107 139 -164 71z"/>
<path d="M9390 6159 c-25 -46 19 -96 68 -78 28 10 28 25 1 32 -12 3 -18 10
-14 17 4 6 13 9 21 6 8 -3 14 0 14 7 0 39 -72 52 -90 16z"/>
<path d="M7920 6020 c-19 -12 -8 -22 41 -36 36 -11 39 -10 39 7 0 17 9 19 88
20 76 1 81 2 42 10 -63 11 -192 11 -210 -1z"/>
<path d="M8240 5969 c146 -19 391 -76 514 -119 71 -24 83 -25 66 -5 -7 8 -9
15 -4 16 19 1 -43 21 -156 49 -152 38 -349 70 -425 69 l-60 -1 65 -9z"/>
<path d="M4795 5821 c-49 -21 -259 -105 -465 -186 -538 -212 -585 -232 -581
-241 2 -5 139 -55 305 -111 165 -57 342 -117 391 -134 50 -17 259 -89 465
-159 206 -70 535 -183 730 -250 195 -66 389 -133 430 -147 41 -13 193 -65 338
-115 l263 -90 717 287 c394 158 719 289 721 291 2 2 2 6 0 8 -3 4 -512 147
-714 201 -27 7 -117 32 -200 55 -82 24 -188 53 -235 65 -47 13 -192 52 -322
89 -396 110 -708 196 -798 221 -110 29 -834 231 -880 245 -51 15 -66 12 -165
-29z"/>
<path d="M9304 5838 c14 -48 19 -128 8 -128 -6 0 -12 -17 -14 -37 -5 -57 -25
-52 -34 9 l-8 53 -8 -64 c-5 -35 -7 -66 -4 -68 2 -2 29 7 60 22 38 18 58 34
62 49 5 22 -50 186 -63 186 -3 0 -2 -10 1 -22z"/>
<path d="M3728 5335 c-11 -11 4 -1020 15 -1033 11 -14 88 -56 91 -50 0 2 -2
197 -5 433 -4 237 -7 473 -8 526 l-1 97 -40 16 c-46 18 -45 18 -52 11z"/>
<path d="M3866 5282 c-10 -17 7 -1054 18 -1064 18 -15 299 -168 303 -165 1 2
0 257 -5 566 l-7 563 -35 13 c-68 26 -262 95 -265 95 -2 0 -6 -4 -9 -8z"/>
<path d="M4224 5149 c-4 -6 -4 -82 -1 -168 4 -86 8 -331 9 -546 1 -214 4 -397
6 -406 2 -9 79 -58 170 -109 92 -52 230 -129 307 -171 77 -43 143 -75 148 -70
9 9 -6 1257 -15 1267 -7 6 -598 214 -610 214 -4 0 -10 -5 -14 -11z"/>
<path d="M4914 4289 c4 -353 10 -646 12 -653 2 -6 46 -33 97 -61 50 -27 121
-66 157 -86 36 -19 99 -54 140 -76 41 -22 108 -59 149 -82 41 -23 78 -38 82
-34 3 5 2 321 -3 703 -7 516 -12 698 -21 706 -7 6 -97 42 -202 79 -104 36
-239 84 -298 106 -60 21 -111 39 -114 39 -3 0 -3 -289 1 -641z"/>
<path d="M7945 4836 c-82 -34 -397 -163 -700 -286 -302 -123 -555 -228 -560
-234 -12 -12 2 -1655 14 -1668 3 -4 130 54 281 128 490 243 963 475 1050 516
47 23 88 46 92 52 4 6 7 357 5 781 -2 675 -4 770 -17 772 -8 1 -82 -26 -165
-61z"/>
<path d="M5602 3964 l3 -716 195 -110 c107 -60 217 -121 244 -135 l49 -25 -8
769 c-5 561 -10 771 -18 779 -13 12 -433 154 -455 154 -10 0 -12 -147 -10
-716z"/>
<path d="M6130 3731 l0 -770 93 -55 c319 -187 412 -236 415 -220 7 32 -18
1638 -26 1646 -6 6 -397 145 -464 165 -17 5 -18 -36 -18 -766z"/>
<path d="M3805 2783 c4 -10 9 -27 12 -38 4 -18 2 -18 -16 4 -28 31 -37 21 -17
-17 18 -35 59 -188 54 -203 -2 -5 -20 19 -40 55 -34 58 -98 122 -98 98 0 -5
11 -17 25 -26 13 -9 29 -26 36 -38 l11 -21 -35 21 c-55 35 -56 26 -2 -22 28
-24 59 -59 69 -77 l19 -34 -44 41 c-24 23 -55 47 -69 54 -18 8 -14 3 12 -19
48 -41 79 -85 83 -117 2 -23 22 -52 55 -82 13 -12 13 -13 -3 -8 -10 3 -23 6
-27 6 -10 0 -74 89 -76 105 -3 31 -19 43 -62 50 -26 4 -72 13 -102 21 -30 8
-79 14 -110 13 l-55 -1 53 -13 c68 -17 76 -25 24 -25 -23 0 -42 -3 -42 -8 0
-4 29 -15 65 -24 69 -18 175 -66 175 -79 0 -4 -18 -5 -40 -2 -23 3 -40 1 -40
-4 0 -5 -17 -15 -38 -21 -20 -6 -46 -19 -57 -27 -23 -19 -26 -19 80 11 55 16
123 18 143 5 9 -5 -8 -10 -45 -13 -32 -3 -74 -13 -93 -22 -19 -9 -26 -13 -15
-10 42 13 152 17 159 5 5 -7 -4 -11 -27 -11 -53 0 -114 -26 -167 -70 l-48 -40
-36 30 c-49 38 -118 51 -252 48 l-109 -3 -3 -323 -2 -323 87 3 88 3 0 107 c0
58 3 109 6 113 4 3 26 -46 49 -109 l42 -114 47 -6 c77 -9 549 -8 656 2 108 9
150 25 203 75 85 81 106 303 41 427 -10 19 -35 54 -56 76 -33 36 -49 44 -112
59 -41 10 -88 18 -104 19 -17 1 -32 7 -34 14 -7 18 72 15 135 -7 28 -10 52
-16 52 -14 0 10 -89 42 -132 48 -27 4 -48 11 -48 16 0 11 -1 11 81 -1 36 -5
88 -19 114 -30 40 -17 46 -18 34 -4 -19 23 -107 62 -149 66 l-35 4 48 22 c26
12 86 30 132 39 83 17 95 32 25 33 -26 0 -31 3 -20 10 8 5 29 10 45 10 17 0
37 5 45 10 19 12 -81 12 -193 1 -70 -8 -81 -12 -111 -43 -19 -19 -41 -48 -50
-65 -8 -17 -22 -33 -31 -36 -19 -8 -20 7 0 23 8 7 15 21 15 31 0 23 74 106
102 115 11 3 17 8 15 11 -8 7 -60 -22 -81 -46 -24 -27 -40 -27 -26 -1 6 11 37
39 70 62 67 47 72 60 11 28 -53 -27 -53 -10 1 29 23 17 35 31 27 31 -20 0 -71
-48 -105 -99 -24 -37 -30 -41 -32 -25 -3 23 28 108 63 172 26 46 21 53 -14 21
l-23 -22 7 24 c4 13 14 32 23 42 8 9 11 17 6 17 -12 0 -54 -53 -88 -113 -31
-52 -40 -53 -50 -6 -3 17 -22 58 -42 90 -34 57 -54 78 -39 42z m64 -191 c6
-30 7 -60 1 -78 -7 -25 -8 -22 -9 26 -1 30 -4 65 -7 78 -4 12 -4 22 -1 22 3 0
10 -22 16 -48z m67 -67 c-11 -59 -14 -64 -15 -31 -1 38 20 128 26 110 2 -5 -3
-41 -11 -79z m-233 -73 c20 -14 37 -29 37 -33 0 -13 -4 -12 -58 24 -27 17 -58
37 -68 44 -15 10 -12 10 16 1 19 -6 52 -22 73 -36z m476 5 c-21 -18 -139 -73
-136 -64 5 16 97 66 121 67 11 0 17 -2 15 -3z m-277 -34 c5 -25 -3 -63 -13
-63 -5 0 -9 18 -9 40 0 40 15 56 22 23z m8 -209 c0 -14 -6 -27 -14 -30 -14 -5
-40 -63 -32 -71 2 -2 11 11 20 29 l17 33 -5 -37 c-3 -26 -1 -35 8 -32 9 3 13
-42 15 -196 2 -168 0 -201 -12 -206 -17 -6 -105 36 -154 73 -30 23 -32 28 -27
71 8 65 31 147 61 212 41 91 86 175 97 182 16 10 26 -1 26 -28z m-229 -28
c-28 -30 -51 -63 -51 -73 0 -11 10 -1 26 25 30 50 38 50 24 1 -18 -63 -10 -65
19 -4 15 33 38 69 50 79 26 24 27 13 1 -28 -24 -40 -106 -285 -115 -347 -9
-58 -12 -63 -54 -77 -59 -20 -65 -17 -100 58 l-33 71 37 32 c43 38 66 106 58
178 -5 45 -5 45 43 76 53 34 111 61 133 62 8 1 -9 -23 -38 -53z m-336 -71 c15
-14 25 -36 25 -53 0 -39 -36 -84 -64 -80 -21 3 -23 18 -17 133 1 32 25 32 56
0z m822 -91 c21 -46 25 -66 20 -111 -7 -70 -35 -118 -68 -118 l-24 0 0 125 c0
114 2 125 18 122 11 -2 17 4 17 18 0 33 10 23 37 -36z"/>
<path d="M3527 2395 c-36 -12 -58 -25 -44 -25 13 0 120 30 125 35 10 10 -44 4
-81 -10z"/>
<path d="M4205 2364 c11 -3 38 -12 60 -20 37 -14 39 -14 24 1 -9 9 -36 18 -60
20 -24 3 -35 2 -24 -1z"/>
<path d="M8741 2279 c-51 -15 -118 -65 -145 -107 -45 -69 -59 -135 -54 -246 7
-150 59 -245 156 -288 48 -22 157 -27 189 -10 21 12 33 64 33 143 0 42 -5 46
-34 24 -46 -35 -117 -12 -147 46 -17 35 -20 55 -17 125 3 91 21 127 73 153 26
13 54 9 111 -15 14 -6 17 144 4 166 -11 18 -121 23 -169 9z"/>
<path d="M9458 2280 c-120 -36 -200 -226 -170 -402 30 -173 112 -260 243 -260
151 0 238 109 247 309 4 84 1 113 -17 173 -45 146 -170 220 -303 180z m94
-161 c32 -17 48 -71 48 -163 0 -103 -20 -163 -57 -172 -15 -4 -30 0 -43 11
-27 24 -44 116 -36 198 8 85 28 127 64 136 2 1 12 -4 24 -10z"/>
<path d="M1747 2273 c-4 -3 -7 -150 -7 -325 l0 -318 90 0 89 0 3 123 3 122 60
5 60 5 0 70 0 70 -60 5 -60 5 0 45 0 45 60 3 c33 2 62 8 66 14 5 8 5 93 0 131
-1 9 -295 10 -304 0z"/>
<path d="M2167 2274 c-4 -4 -7 -151 -7 -326 l0 -318 155 0 156 0 -3 73 -3 72
-62 3 -63 3 -2 247 -3 247 -80 3 c-45 1 -84 0 -88 -4z"/>
<path d="M4565 2268 c-3 -7 -37 -146 -75 -308 -39 -162 -73 -303 -76 -312 -5
-16 4 -18 85 -18 l91 0 6 28 c3 15 7 33 10 40 2 8 23 12 59 12 36 0 57 -4 59
-12 3 -7 7 -25 10 -40 l6 -28 91 0 c81 0 90 2 85 18 -3 9 -17 71 -30 137 -51
245 -97 461 -102 478 -5 15 -19 17 -110 17 -75 0 -106 -4 -109 -12z m123 -287
c18 -133 18 -131 -24 -131 -34 0 -36 2 -31 28 3 15 11 64 18 110 7 45 15 82
19 82 3 0 12 -40 18 -89z"/>
<path d="M5247 2274 c-4 -4 -7 -151 -7 -326 l0 -319 88 3 87 3 0 320 0 320
-80 3 c-45 1 -84 0 -88 -4z"/>
<path d="M5527 2274 c-4 -4 -7 -151 -7 -326 l0 -318 86 0 85 0 -3 160 c-3 152
2 188 21 138 4 -13 29 -85 55 -160 l48 -138 83 0 c76 0 84 2 90 21 8 23 5 570
-3 607 -4 22 -8 23 -86 20 l-81 -3 0 -105 c0 -58 3 -136 7 -174 5 -42 4 -66
-2 -60 -5 5 -36 83 -68 174 l-60 165 -79 3 c-43 1 -82 0 -86 -4z"/>
<path d="M6060 2200 l0 -80 45 0 45 0 2 -242 3 -243 87 -3 88 -3 2 243 3 243
48 3 47 3 0 80 0 79 -185 0 -185 0 0 -80z"/>
<path d="M6510 1955 l0 -325 163 2 162 3 0 70 0 70 -75 5 -75 5 -3 47 -3 47
68 3 68 3 3 72 3 72 -68 3 -68 3 0 45 0 45 78 3 78 3 -3 72 -3 72 -162 3 -163
2 0 -325z"/>
<path d="M6948 2274 c-5 -4 -8 -151 -8 -326 l0 -318 90 0 90 0 0 117 c0 66 4
113 9 107 4 -5 25 -57 46 -116 l38 -108 93 0 c52 0 94 2 94 5 0 3 -28 61 -62
130 l-63 126 34 26 c43 34 61 78 61 152 0 71 -12 106 -48 145 -45 48 -84 59
-232 64 -74 2 -138 1 -142 -4z m229 -156 c29 -27 30 -76 2 -112 -11 -14 -29
-26 -40 -26 -17 0 -19 8 -19 80 0 68 2 80 17 80 9 0 27 -10 40 -22z"/>
<path d="M7470 1955 l0 -325 80 0 80 0 0 168 c1 195 1 195 75 -25 l48 -143 82
0 c47 0 85 4 87 10 2 5 2 152 0 325 l-3 315 -81 0 -81 0 5 -175 c2 -96 1 -172
-3 -168 -4 5 -34 82 -67 173 l-59 165 -82 3 -81 3 0 -326z"/>
<path d="M8140 2258 c-8 -19 -124 -494 -147 -600 l-5 -28 89 0 89 0 10 38 c9
37 10 37 63 40 59 3 71 -5 71 -50 l0 -28 90 0 c71 0 90 3 90 14 0 24 -120 589
-130 614 -9 21 -15 22 -110 22 -95 0 -101 -1 -110 -22z m124 -278 c4 -36 9
-80 13 -97 5 -32 5 -33 -32 -33 l-38 0 7 48 c25 184 38 204 50 82z"/>
<path d="M9027 2274 c-4 -4 -7 -151 -7 -326 l0 -318 90 0 90 0 -2 323 -3 322
-80 3 c-45 1 -84 0 -88 -4z"/>
<path d="M9870 1955 l0 -325 86 0 87 0 -5 165 c-2 91 -2 165 1 165 3 0 31 -73
62 -163 l56 -162 87 -3 86 -3 -2 323 -3 323 -80 0 -80 0 -3 -108 c-1 -60 2
-132 7 -160 11 -61 0 -96 -16 -51 -77 218 -107 301 -116 312 -6 8 -37 12 -88
12 l-79 0 0 -325z"/>
<path d="M10545 2268 c-2 -7 -16 -62 -29 -123 -14 -60 -46 -192 -71 -293 -25
-101 -45 -192 -45 -203 0 -18 6 -20 88 -17 l87 3 5 35 5 35 60 0 59 0 9 -37 9
-38 89 0 89 0 -7 33 c-3 17 -34 163 -68 322 l-61 290 -107 3 c-80 2 -108 -1
-112 -10z m130 -340 l8 -78 -31 0 c-17 0 -33 3 -35 8 -5 7 21 186 30 212 8 19
19 -40 28 -142z"/>
<path d="M10967 2274 c-4 -4 -7 -151 -7 -326 l0 -318 155 0 156 0 -3 73 -3 72
-62 3 -63 3 -2 247 -3 247 -80 3 c-45 1 -84 0 -88 -4z"/>
<path d="M4555 1236 c-65 -29 -91 -84 -106 -226 -20 -186 13 -358 78 -410 52
-41 151 -20 186 40 64 107 64 451 1 547 -32 50 -107 73 -159 49z m86 -59 c41
-31 53 -78 57 -227 7 -223 -21 -314 -97 -312 -40 1 -66 31 -82 97 -15 62 -14
308 1 365 20 73 78 110 121 77z"/>
<path d="M6343 1235 c-68 -29 -103 -139 -103 -325 0 -230 49 -330 160 -330
112 0 160 103 160 344 0 187 -40 294 -117 315 -48 14 -61 13 -100 -4z m107
-73 c38 -38 54 -138 48 -297 -7 -174 -41 -241 -115 -227 -52 10 -83 109 -83
266 0 236 63 345 150 258z"/>
<path d="M7494 1239 c-45 -13 -90 -69 -111 -137 -14 -44 -18 -91 -18 -202 1
-126 4 -152 23 -201 31 -77 68 -111 131 -117 57 -5 101 15 101 47 0 27 -7 30
-51 15 -34 -12 -44 -12 -69 1 -59 30 -86 135 -77 302 8 173 39 236 113 237 22
1 49 -3 62 -7 19 -7 22 -5 22 16 0 14 -6 29 -12 35 -20 16 -80 22 -114 11z"/>
<path d="M8301 1243 c-37 -7 -71 -33 -95 -72 -68 -109 -73 -404 -8 -514 38
-65 117 -94 186 -67 19 7 26 17 26 36 0 24 -2 25 -32 18 -96 -23 -135 16 -158
155 -18 108 -6 251 26 317 34 71 74 86 148 58 12 -5 16 1 16 24 0 17 -3 33 -7
35 -15 8 -78 14 -102 10z"/>
<path d="M8570 1232 c-65 -36 -100 -147 -100 -317 1 -231 51 -335 163 -335 45
0 54 4 87 39 50 52 70 133 70 284 0 231 -41 326 -147 342 -27 4 -48 1 -73 -13z
m114 -72 c35 -42 41 -81 41 -260 0 -145 -2 -158 -25 -205 -23 -47 -28 -50 -67
-53 -39 -3 -44 0 -62 29 -30 49 -44 158 -38 289 3 63 11 131 18 150 28 82 87
104 133 50z"/>
<path d="M3500 915 l0 -325 30 0 30 0 -2 322 -3 321 -27 4 -28 4 0 -326z"/>
<path d="M3725 1228 c-2 -7 -22 -141 -44 -298 -23 -157 -43 -297 -46 -312 -4
-25 -2 -28 25 -28 33 0 32 -3 50 150 27 221 40 313 44 317 3 3 7 -10 10 -28 3
-19 12 -72 20 -119 8 -47 17 -110 21 -140 4 -30 11 -83 17 -117 9 -56 13 -63
33 -63 29 0 25 -14 71 258 21 123 41 217 44 210 4 -7 15 -98 24 -203 24 -275
22 -265 58 -265 27 0 29 2 24 28 -3 15 -17 121 -31 237 -49 411 -47 401 -83
379 -13 -9 -26 -64 -57 -247 -22 -129 -43 -239 -47 -243 -5 -4 -8 -3 -8 2 0 5
-9 63 -19 129 -11 66 -27 172 -36 235 -9 63 -22 118 -28 122 -18 12 -37 9 -42
-4z"/>
<path d="M4158 1234 c-5 -4 -8 -151 -8 -326 l0 -318 30 0 29 0 3 152 3 153 50
7 c98 14 127 50 128 162 1 124 -35 164 -154 173 -41 3 -77 2 -81 -3z m159 -80
c8 -10 13 -46 13 -85 0 -84 -18 -111 -76 -113 l-39 -1 -3 104 c-2 62 1 108 8
116 14 17 80 3 97 -21z"/>
<path d="M4858 1234 c-5 -4 -8 -151 -8 -326 l0 -318 30 0 30 0 0 147 c0 91 4
143 9 138 5 -6 36 -71 68 -145 58 -132 60 -135 93 -138 24 -3 31 0 27 10 -3 7
-33 73 -66 146 -34 73 -61 137 -61 142 0 4 17 17 38 27 50 24 72 71 72 151 0
73 -18 124 -54 147 -26 18 -166 33 -178 19z m146 -70 c22 -22 29 -56 24 -120
-6 -66 -21 -83 -73 -87 l-40 -2 -3 113 -3 112 40 0 c23 0 46 -7 55 -16z"/>
<path d="M5124 1225 c-11 -29 4 -44 48 -47 l43 -3 3 -292 2 -293 30 0 30 0 0
294 0 295 43 3 c38 3 42 6 45 31 l3 27 -121 0 c-98 0 -122 -3 -126 -15z"/>
<path d="M5620 916 l0 -327 26 3 26 3 -1 126 c-2 165 1 179 45 179 48 0 99 23
119 54 26 39 31 146 11 200 -23 60 -52 77 -147 83 l-79 6 0 -327z m151 245
c21 -17 24 -28 24 -90 0 -82 -17 -108 -77 -117 -29 -5 -36 -3 -40 13 -8 29
-10 192 -3 203 10 17 72 11 96 -9z"/>
<path d="M5936 1231 c-4 -6 -8 -152 -8 -324 l0 -312 31 -3 31 -3 0 146 c0 80
3 144 8 141 4 -2 34 -68 67 -145 59 -140 60 -141 92 -141 l32 0 -18 43 c-10
23 -39 86 -65 141 -25 54 -46 106 -46 115 0 10 13 21 32 26 55 17 73 54 73
149 0 131 -28 164 -150 173 -49 4 -74 2 -79 -6z m150 -72 c23 -25 26 -132 5
-171 -13 -25 -72 -45 -93 -32 -4 3 -8 54 -8 115 l0 109 38 0 c27 0 45 -7 58
-21z"/>
<path d="M6650 916 l0 -326 74 0 c82 0 126 21 158 75 27 47 41 166 35 295 -11
218 -44 268 -187 277 l-80 6 0 -327z m153 244 c42 -34 52 -80 52 -250 0 -138
-3 -160 -22 -203 -22 -48 -50 -67 -99 -67 l-24 0 0 270 0 270 34 0 c18 0 45
-9 59 -20z"/>
<path d="M7007 1234 c-11 -12 -8 -498 4 -553 15 -72 52 -101 128 -101 43 0 65
5 84 20 47 37 52 73 52 365 l0 270 -27 3 c-27 3 -28 2 -28 -50 -3 -450 -5
-494 -23 -521 -23 -35 -84 -38 -113 -6 -17 19 -19 44 -24 298 -5 268 -6 276
-25 279 -12 2 -24 0 -28 -4z"/>
<path d="M7707 1234 c-4 -4 -7 -151 -7 -326 l0 -318 100 0 100 0 0 25 c0 24
-2 25 -70 25 l-71 0 3 128 3 127 65 5 c57 4 65 8 65 25 0 17 -8 21 -65 25
l-65 5 -3 112 -3 112 68 3 c65 3 68 4 68 28 0 25 -1 25 -90 28 -50 1 -94 0
-98 -4z"/>
<path d="M8888 1234 c-5 -4 -8 -151 -8 -326 l0 -318 30 0 30 0 0 147 c0 92 4
143 9 138 9 -9 32 -60 99 -222 24 -60 27 -63 59 -63 l33 0 -14 33 c-22 51 -96
210 -106 229 -18 33 -11 53 22 63 50 16 72 55 76 138 5 91 -13 139 -60 163
-35 18 -158 31 -170 18z m148 -75 c22 -25 31 -119 14 -159 -9 -22 -22 -33 -51
-40 -22 -6 -44 -8 -49 -5 -10 6 -15 217 -5 226 11 11 75 -5 91 -22z"/>
<path d="M9218 1234 c-5 -4 -8 -151 -8 -326 l0 -318 30 0 29 0 3 153 3 152 45
6 c99 13 130 52 130 163 0 77 -18 128 -54 151 -26 18 -166 33 -178 19z m149
-80 c23 -23 25 -31 21 -95 -4 -81 -19 -101 -75 -103 l-38 -1 -3 113 -3 112 36
0 c25 0 44 -8 62 -26z"/>
<path d="M9419 651 c-21 -16 -22 -22 -11 -45 19 -42 82 -31 82 14 0 16 -29 50
-42 50 -3 0 -16 -8 -29 -19z"/>
</g>
</svg>
