<?xml version="1.0" standalone="no"?>
<!DOCTYPE svg PUBLIC "-//W3C//DTD SVG 20010904//EN"
 "http://www.w3.org/TR/2001/REC-SVG-20010904/DTD/svg10.dtd">
<svg version="1.0" xmlns="http://www.w3.org/2000/svg"
 width="140" height="100" viewBox="0 0 1280.000000 909.000000"
 preserveAspectRatio="xMidYMid meet">
<metadata>
Created by potrace 1.16, written by Peter Selinger 2001-2019
</metadata>
<g transform="translate(0.000000,909.000000) scale(0.100000,-0.100000)"
fill="#FDFEFE" stroke="none">
<path d="M5990 8863 c-291 -15 -633 -69 -915 -145 -168 -45 -546 -177 -570
-199 -5 -5 -15 -9 -22 -9 -7 0 -78 -31 -157 -70 -79 -38 -149 -70 -154 -70 -6
0 -12 -4 -14 -8 -1 -5 -28 -22 -58 -38 -151 -83 -187 -105 -277 -166 -23 -15
-46 -28 -52 -28 -6 0 -11 -4 -11 -8 0 -4 -14 -16 -31 -26 -31 -18 -280 -204
-289 -215 -3 -4 -25 -22 -50 -41 -111 -85 -339 -305 -477 -460 -53 -60 -238
-293 -288 -364 -61 -87 -241 -374 -276 -441 -153 -292 -270 -570 -334 -790 -9
-33 -21 -70 -26 -83 -8 -20 -38 -135 -54 -202 -38 -168 -52 -246 -85 -460 -27
-176 -44 -511 -36 -690 7 -131 29 -367 41 -430 3 -14 16 -88 31 -165 14 -77
41 -198 60 -270 19 -71 39 -150 46 -175 6 -25 14 -54 19 -65 4 -11 22 -65 40
-120 31 -97 88 -246 164 -430 38 -93 193 -409 235 -480 73 -123 80 -145 74
-225 -7 -83 11 -182 46 -249 55 -110 196 -158 301 -105 44 22 91 75 117 133
46 100 40 310 -11 394 -12 20 -42 57 -67 84 -156 167 -356 525 -453 813 -136
400 -195 865 -184 1445 9 480 62 795 207 1225 56 167 170 438 230 545 15 28
43 80 63 116 103 191 261 417 461 658 79 95 331 340 465 451 10 8 40 33 66 55
52 43 145 111 240 175 33 22 80 53 105 70 121 83 397 228 570 300 41 17 84 35
95 40 110 47 350 122 530 165 941 225 1983 87 2805 -372 52 -29 102 -57 110
-63 8 -5 31 -18 50 -29 71 -39 361 -240 390 -271 3 -3 41 -35 85 -70 186 -149
450 -419 584 -598 113 -150 251 -347 251 -358 0 -3 8 -18 19 -32 23 -33 61
-100 61 -108 0 -20 -193 32 -342 92 -294 117 -495 276 -878 694 -68 74 -192
204 -275 288 -148 150 -153 153 -190 150 -22 -2 -40 -9 -43 -17 -3 -8 71 -88
180 -195 215 -212 280 -281 412 -439 53 -64 103 -117 110 -117 21 0 161 -164
247 -290 141 -206 238 -422 305 -685 18 -71 33 -118 34 -104 1 63 -44 344 -81
507 -11 51 -19 96 -16 99 3 3 40 -23 82 -58 42 -35 89 -74 105 -87 l28 -23 30
30 c51 51 104 53 161 6 56 -48 65 -133 18 -183 l-22 -24 68 -61 c74 -68 86
-95 87 -193 0 -144 -79 -222 -245 -243 -117 -14 -104 -24 25 -19 172 8 253 47
304 149 19 39 26 68 26 111 0 32 4 58 9 58 11 0 31 -101 31 -154 0 -89 -46
-168 -118 -205 -89 -45 -252 -50 -459 -15 -52 9 -96 14 -99 11 -7 -7 201 -65
314 -87 127 -25 277 -26 353 -4 70 21 142 90 159 153 6 24 15 40 19 35 14 -15
41 -96 51 -149 5 -27 20 -93 33 -145 35 -137 40 -180 24 -180 -8 0 -43 13 -78
29 -86 39 -162 61 -385 114 -104 25 -213 55 -242 66 -29 12 -56 21 -59 21 -19
0 142 -141 210 -183 113 -72 229 -109 392 -126 116 -13 181 -26 189 -40 6 -9
23 -153 31 -273 7 -97 2 -105 -45 -67 -14 11 -113 79 -220 151 -365 246 -478
333 -624 482 -100 102 -104 95 -16 -32 61 -89 78 -110 184 -221 52 -55 56 -61
27 -45 -60 34 -183 147 -253 234 -62 77 -158 243 -158 274 0 19 -61 64 -206
155 -224 141 -456 249 -599 280 -66 14 -151 25 -145 19 3 -3 48 -22 100 -43
236 -94 444 -211 675 -379 38 -28 81 -60 93 -71 26 -22 57 -75 45 -75 -5 0
-62 27 -128 60 -66 33 -149 67 -185 76 -141 36 -277 -1 -390 -106 l-55 -51 51
25 c150 73 262 85 351 38 28 -15 86 -58 128 -97 114 -105 173 -128 270 -105
53 12 64 8 102 -43 53 -71 172 -185 268 -256 102 -76 162 -114 371 -237 225
-130 339 -208 359 -242 5 -9 9 -66 10 -125 0 -101 -1 -106 -14 -75 -7 18 -14
68 -15 110 0 42 -5 80 -9 84 -25 26 -37 -95 -16 -171 6 -22 34 -101 61 -175
28 -74 57 -157 64 -185 18 -68 18 -159 -2 -196 -26 -52 -10 -54 49 -5 31 25
57 41 57 34 0 -25 -80 -135 -139 -191 -64 -61 -88 -72 -76 -35 13 45 17 214 6
267 -32 148 -121 297 -271 455 -86 90 -292 266 -312 266 -5 0 16 -31 45 -70
150 -197 202 -404 178 -707 -7 -87 -15 -197 -18 -246 l-6 -87 -65 -31 c-90
-44 -163 -120 -337 -354 -271 -365 -464 -523 -752 -616 -40 -12 -71 -24 -69
-27 6 -6 122 17 246 48 173 43 368 122 497 201 36 21 67 39 69 39 7 0 116 78
195 140 87 69 273 247 361 348 49 55 64 65 127 87 407 138 753 460 869 810 73
218 137 601 162 975 5 85 15 308 20 495 18 590 51 965 85 965 21 0 28 19 13
37 -19 24 -7 103 17 103 22 0 28 20 12 38 -19 23 -5 78 23 85 21 5 28 37 9 37
-14 0 -5 66 12 86 6 8 20 14 30 14 23 0 25 26 4 46 -12 13 -13 20 -2 47 10 24
22 34 50 40 42 10 47 29 16 51 l-22 15 21 48 c18 43 25 49 62 56 84 17 60 67
-32 67 -55 0 -78 -4 -198 -32 -147 -34 -386 -141 -536 -240 -94 -62 -231 -167
-329 -252 -138 -120 -158 -146 -45 -61 116 88 295 205 314 205 3 0 -55 -47
-131 -104 -76 -57 -175 -136 -220 -175 -45 -39 -87 -71 -92 -71 -6 0 -11 9
-11 20 0 11 -4 20 -10 20 -5 0 -21 21 -36 48 -62 107 -148 249 -166 272 -11
14 -37 52 -58 85 -153 235 -410 532 -640 740 -152 137 -295 255 -310 255 -5 0
-10 4 -10 8 0 5 -21 24 -47 43 -27 18 -52 37 -58 41 -10 8 -217 147 -238 160
-167 102 -458 252 -632 326 -111 46 -419 155 -490 172 -16 5 -91 23 -165 43
-382 98 -859 143 -1280 120z m4619 -2487 c-2 -2 -22 -19 -44 -36 -72 -57 -205
-183 -205 -194 0 -6 12 -24 26 -39 l25 -29 42 39 c50 46 151 123 161 123 4 0
-19 -24 -51 -52 -95 -87 -133 -124 -133 -133 0 -4 15 -28 34 -54 83 -113 193
-338 267 -544 39 -109 52 -172 21 -107 -128 273 -196 395 -344 618 -59 90
-108 172 -108 182 0 10 -5 22 -10 25 -6 4 -8 11 -4 16 3 6 15 4 29 -5 23 -15
26 -14 77 32 77 70 199 160 217 162 2 0 2 -2 0 -4z m-93 -692 c71 -120 162
-320 208 -458 21 -59 36 -110 34 -112 -2 -2 -24 45 -48 104 -57 141 -99 224
-175 352 -52 86 -105 195 -105 215 0 2 7 2 15 -2 9 -3 40 -47 71 -99z m168
-1173 c74 -233 74 -462 1 -636 -24 -59 -28 -35 -10 57 14 66 16 114 12 233 -3
83 -10 165 -16 182 -16 55 -43 224 -37 240 10 26 25 4 50 -76z"/>
<path d="M6485 7125 c-44 -12 -321 -91 -615 -174 -742 -210 -720 -204 -720
-211 0 -8 26 -18 404 -167 l240 -94 45 17 c25 8 109 37 186 64 131 46 266 92
795 277 301 105 300 104 300 109 0 5 -58 30 -125 54 -27 10 -126 48 -219 84
-93 36 -179 66 -190 65 -12 0 -57 -11 -101 -24z"/>
<path d="M7102 6908 c-14 -14 -18 -478 -4 -478 5 0 16 8 25 18 14 15 15 45 10
245 -3 125 -9 227 -13 227 -3 0 -11 -5 -18 -12z"/>
<path d="M6985 6871 l-50 -18 -3 -256 c-1 -142 0 -257 4 -257 3 0 35 16 70 36
l64 36 0 239 c0 271 7 252 -85 220z"/>
<path d="M6875 6830 c-11 -4 -73 -26 -137 -49 l-118 -43 0 -289 c0 -159 3
-289 6 -289 4 0 32 15 63 33 31 19 86 50 123 71 106 58 98 33 98 316 0 137 -3
251 -7 253 -5 3 -17 1 -28 -3z"/>
<path d="M6518 6704 c-38 -13 -97 -34 -133 -47 -36 -13 -67 -26 -70 -29 -9 -8
-7 -643 2 -641 4 1 43 22 87 47 43 25 102 57 131 72 l52 27 7 291 c3 159 3
293 -1 297 -5 4 -38 -3 -75 -17z"/>
<path d="M5136 6703 c-9 -9 -6 -686 3 -701 6 -10 115 -64 500 -248 73 -35 137
-64 142 -64 5 0 9 165 9 379 0 294 -3 380 -12 384 -391 157 -570 229 -599 241
-20 8 -39 12 -43 9z"/>
<path d="M6175 6583 c-55 -20 -103 -41 -107 -47 -8 -11 -11 -696 -4 -696 6 0
200 111 209 120 7 6 11 650 4 656 -1 1 -47 -14 -102 -33z"/>
<path d="M5920 6493 c-52 -20 -96 -36 -97 -37 -6 -5 -12 -745 -6 -749 4 -3 56
23 115 57 l107 61 1 353 c0 275 -3 352 -12 351 -7 0 -56 -16 -108 -36z"/>
<path d="M8885 6485 c71 -216 105 -468 71 -533 -18 -36 -28 -43 -70 -52 -30
-7 -29 -8 49 -45 103 -48 155 -55 185 -25 19 19 22 30 17 75 -8 79 -60 222
-137 379 -65 133 -129 245 -115 201z"/>
<path d="M8296 5961 c133 -21 358 -76 473 -116 80 -27 96 -30 69 -14 -10 5
-18 16 -18 24 0 15 -7 17 -175 59 -146 37 -267 57 -375 62 l-95 4 121 -19z"/>
<path d="M4665 5769 c-121 -48 -377 -150 -568 -226 -191 -76 -347 -142 -346
-148 2 -9 397 -151 529 -190 25 -7 151 -50 280 -95 129 -45 345 -120 480 -165
135 -46 331 -113 435 -149 628 -214 1088 -371 1140 -388 l60 -19 715 286 c393
157 716 288 719 291 2 2 2 6 0 8 -2 3 -112 34 -244 71 -132 36 -287 79 -345
95 -58 16 -170 48 -250 70 -80 22 -176 49 -215 59 -38 11 -178 50 -310 86
-132 36 -303 84 -380 105 -77 21 -232 64 -345 95 -113 31 -259 72 -325 90 -66
19 -250 70 -410 114 -159 44 -306 85 -325 91 -19 5 -44 10 -55 9 -11 -1 -119
-41 -240 -90z"/>
<path d="M3728 5335 c-6 -7 0 -1004 7 -1025 5 -14 93 -67 98 -59 1 2 -1 204
-4 449 -4 245 -7 482 -8 526 l-1 82 -40 16 c-45 18 -45 18 -52 11z"/>
<path d="M3866 5282 c-7 -12 6 -1049 13 -1059 8 -11 303 -174 308 -170 1 2 0
257 -5 568 l-7 564 -135 47 c-74 27 -142 50 -152 53 -9 3 -19 2 -22 -3z"/>
<path d="M4225 5150 c-4 -6 -4 -97 -1 -203 3 -106 6 -352 8 -547 1 -195 4
-362 6 -371 2 -9 40 -37 85 -62 446 -249 533 -295 539 -289 9 9 -5 1258 -14
1267 -9 9 -592 215 -609 215 -4 0 -11 -5 -14 -10z"/>
<path d="M4914 4289 c4 -353 9 -646 12 -652 4 -11 107 -69 364 -208 47 -25
123 -67 169 -93 47 -26 88 -43 92 -39 12 14 -11 1407 -24 1415 -6 3 -96 36
-201 73 -105 36 -240 84 -299 106 -60 21 -111 39 -114 39 -3 0 -3 -288 1 -641z"/>
<path d="M7945 4836 c-82 -34 -397 -162 -700 -286 -302 -123 -555 -228 -560
-234 -12 -12 2 -1655 14 -1668 3 -4 121 49 261 118 566 280 990 488 1070 526
47 23 88 46 92 52 4 6 7 357 5 781 -2 675 -4 770 -17 772 -8 1 -82 -26 -165
-61z"/>
<path d="M5602 3964 l3 -717 195 -109 c107 -60 217 -121 244 -135 l49 -25 -8
769 c-5 561 -10 771 -18 779 -12 12 -432 154 -455 154 -10 0 -12 -147 -10
-716z"/>
<path d="M6130 3730 l0 -769 93 -55 c50 -29 164 -95 252 -145 148 -85 160 -90
163 -70 7 43 -18 1633 -26 1641 -7 7 -464 168 -477 168 -3 0 -5 -346 -5 -770z"/>
<path d="M3804 2783 c22 -44 20 -63 -5 -34 -28 34 -33 21 -11 -30 22 -51 56
-179 49 -186 -3 -2 -21 23 -41 56 -34 56 -90 110 -102 98 -3 -3 9 -15 25 -27
17 -12 36 -30 42 -42 10 -18 6 -17 -38 7 l-48 27 52 -49 c28 -26 59 -61 69
-78 16 -26 11 -23 -35 18 -72 64 -82 60 -15 -7 36 -36 54 -63 54 -79 0 -24 29
-70 60 -94 19 -16 8 -16 -24 -2 -28 13 -79 84 -81 113 -2 21 -58 76 -78 76 -6
0 -1 -9 12 -19 l24 -19 -49 9 c-27 4 -65 13 -84 18 -19 6 -62 11 -95 10 l-60
-1 48 -13 c62 -17 70 -25 24 -25 -54 0 -45 -15 16 -29 30 -6 85 -27 123 -45
l69 -34 -90 2 c-73 1 -95 -2 -115 -18 l-25 -18 30 7 c70 18 106 22 111 14 3
-5 -1 -9 -8 -9 -20 -1 -102 -40 -95 -46 3 -3 35 4 72 15 69 22 140 27 149 12
3 -4 -20 -11 -50 -15 -48 -5 -114 -29 -114 -40 0 -2 21 2 47 10 54 16 133 19
133 4 0 -5 -13 -10 -29 -10 -47 0 -110 -27 -161 -70 l-47 -40 -24 21 c-48 43
-88 53 -236 57 l-143 4 0 -326 0 -327 88 3 87 3 5 115 5 115 24 -65 c13 -36
33 -88 43 -117 24 -64 9 -62 363 -63 413 -2 484 8 563 83 82 79 106 296 46
423 -9 20 -47 66 -83 104 -54 55 -76 71 -120 84 -30 9 -66 16 -80 16 -15 0
-21 4 -16 9 14 12 122 -4 185 -28 37 -14 48 -16 40 -6 -23 27 -103 65 -137 65
-29 0 -33 3 -24 14 12 14 129 51 199 61 50 8 48 15 -5 25 l-38 7 30 7 c17 4
41 10 55 13 52 11 -5 15 -127 8 -125 -7 -125 -7 -164 -42 -21 -19 -41 -44 -45
-55 -6 -19 -7 -19 -16 -5 -5 11 -5 24 2 37 12 23 107 100 123 100 5 0 8 3 5 6
-8 7 -63 -21 -107 -55 l-35 -26 17 25 c9 14 41 43 71 64 59 43 67 57 17 32
-34 -18 -41 -19 -41 -8 0 5 17 21 37 35 21 15 31 27 23 27 -19 0 -66 -43 -104
-93 -15 -21 -30 -36 -33 -33 -8 8 27 107 58 164 27 49 28 67 1 40 -20 -20 -26
0 -8 27 9 14 12 25 7 25 -11 0 -71 -81 -96 -130 l-18 -35 -10 25 c-25 64 -72
151 -90 167 -20 18 -20 18 -3 -14z m-84 -552 c0 -5 -12 -19 -27 -32 -17 -13
-23 -23 -16 -26 9 -3 9 -12 2 -29 -5 -14 -9 -35 -8 -47 0 -16 6 -9 20 23 22
49 68 114 76 107 2 -3 -3 -16 -12 -30 -30 -47 -96 -246 -129 -390 -5 -20 -17
-33 -41 -43 -61 -25 -69 -20 -104 58 l-32 72 31 24 c48 38 64 77 63 159 -1 72
-1 73 34 94 40 25 125 68 136 68 4 1 7 -3 7 -8z m187 -7 c4 -10 0 -22 -10 -29
-16 -11 -37 -56 -37 -77 0 -6 6 -6 15 2 12 10 15 10 15 -3 0 -9 6 -14 13 -11
10 4 13 -37 14 -196 1 -159 -1 -202 -12 -206 -14 -6 -101 35 -147 69 -24 18
-28 27 -28 71 0 75 31 166 108 321 39 78 56 93 69 59z m258 -201 c21 -47 26
-68 22 -108 -6 -63 -23 -99 -52 -115 -39 -21 -45 -6 -45 110 0 122 5 147 26
129 11 -9 14 -6 14 15 0 14 2 26 4 26 3 0 17 -26 31 -57z"/>
<path d="M8739 2279 c-60 -17 -131 -78 -164 -144 -29 -56 -30 -64 -30 -184 0
-141 13 -183 75 -255 48 -55 99 -77 178 -78 84 -2 107 10 116 59 6 42 8 133 2
133 -2 0 -17 -7 -32 -15 -93 -48 -164 21 -164 159 0 79 21 131 63 156 38 24
53 25 91 5 15 -8 32 -15 37 -15 12 0 11 151 0 169 -12 18 -120 24 -172 10z"/>
<path d="M9432 2269 c-53 -27 -96 -78 -124 -149 -32 -81 -31 -251 1 -333 44
-113 119 -169 227 -170 142 -1 232 111 242 304 7 146 -22 242 -95 311 -63 60
-172 76 -251 37z m155 -200 c18 -51 16 -191 -3 -239 -18 -44 -53 -62 -79 -40
-60 50 -53 306 9 330 29 11 58 -9 73 -51z"/>
<path d="M1747 2274 c-4 -4 -7 -150 -7 -325 l0 -317 74 -4 c114 -5 106 -14
106 123 0 65 1 119 3 120 1 0 25 2 52 5 78 8 76 6 73 81 l-3 68 -60 5 -60 5
-3 42 c-3 47 1 50 88 55 l45 3 0 70 0 70 -151 3 c-82 1 -153 -1 -157 -4z"/>
<path d="M2167 2274 c-4 -4 -7 -151 -7 -326 l0 -318 155 0 156 0 -3 73 -3 72
-62 3 -63 3 -2 247 -3 247 -80 3 c-45 1 -84 0 -88 -4z"/>
<path d="M4567 2273 c-3 -4 -37 -143 -76 -308 -40 -165 -74 -308 -77 -317 -5
-16 4 -18 85 -18 l91 0 6 28 c11 52 12 52 68 52 56 0 66 -8 66 -50 0 -10 5
-22 11 -26 10 -6 170 -7 175 -1 2 1 -28 146 -65 322 l-67 320 -106 3 c-59 1
-108 -1 -111 -5z"/>
<path d="M5247 2274 c-11 -11 -8 -642 3 -646 5 -1 46 -2 90 0 l80 4 -2 321 -3
322 -80 3 c-45 1 -84 0 -88 -4z"/>
<path d="M5527 2274 c-4 -4 -7 -151 -7 -326 l0 -318 85 0 85 0 0 163 c1 105 4
156 10 146 5 -9 32 -80 59 -159 28 -78 52 -144 53 -146 2 -2 39 -4 82 -5 57
-1 80 2 87 12 5 8 8 154 6 324 l-2 310 -85 0 -85 0 1 -135 c0 -74 3 -150 7
-167 3 -18 3 -33 -2 -33 -4 0 -35 75 -68 168 l-61 167 -79 3 c-43 1 -82 0 -86
-4z"/>
<path d="M6060 2200 l0 -80 45 0 45 0 2 -242 3 -243 87 -3 88 -3 2 243 3 243
48 3 47 3 0 80 0 79 -185 0 -185 0 0 -80z"/>
<path d="M6510 1955 c0 -282 2 -325 15 -325 8 0 76 -1 150 -1 74 0 142 1 150
1 13 0 15 13 13 73 l-3 72 -75 5 -75 5 0 45 0 45 65 5 65 5 3 72 3 72 -68 3
-68 3 0 45 0 45 78 3 78 3 -3 72 -3 72 -162 3 -163 2 0 -325z"/>
<path d="M6948 2274 c-5 -4 -8 -151 -8 -326 l0 -318 90 0 89 0 3 118 3 117 44
-117 44 -118 68 0 c37 0 73 -2 81 -5 7 -3 19 -1 26 3 9 7 -3 40 -49 136 l-62
128 33 26 c43 34 60 78 60 157 0 96 -31 148 -110 183 -38 17 -299 30 -312 16z"/>
<path d="M7469 2265 c-1 -8 -1 -24 -1 -35 0 -11 0 -150 1 -309 l1 -289 76 -4
c67 -3 77 -1 86 16 7 13 8 71 3 164 -4 89 -3 142 3 138 5 -3 33 -75 62 -161
l52 -155 67 -1 c81 -2 94 0 103 14 8 13 9 603 1 623 -4 10 -27 14 -85 14 l-80
0 4 -170 c2 -97 0 -166 -5 -161 -5 5 -35 80 -66 168 l-56 158 -83 3 c-68 2
-82 0 -83 -13z"/>
<path d="M8142 2263 c-5 -10 -28 -99 -52 -198 -23 -99 -55 -233 -71 -297 -16
-64 -29 -122 -29 -127 0 -7 33 -11 89 -11 l89 0 9 38 c9 37 9 37 66 40 l57 3
6 -41 7 -40 88 0 c73 0 89 3 89 15 0 25 -120 588 -130 613 -9 21 -15 22 -109
22 -85 0 -102 -3 -109 -17z"/>
<path d="M9027 2274 c-4 -4 -7 -151 -7 -326 0 -247 3 -318 13 -319 11 -1 144
0 160 1 4 0 6 145 5 323 l-3 322 -80 3 c-45 1 -84 0 -88 -4z"/>
<path d="M9870 1955 l0 -325 86 0 86 0 -3 160 c-2 88 -1 160 2 160 4 0 31 -71
61 -157 l55 -158 87 -3 86 -3 -2 323 -3 323 -80 0 -80 0 1 -169 c1 -99 -2
-163 -7 -154 -5 9 -32 80 -60 159 -28 79 -56 150 -61 157 -7 8 -38 12 -89 12
l-79 0 0 -325z"/>
<path d="M10547 2273 c-2 -4 -12 -42 -22 -83 -9 -41 -41 -175 -71 -297 -30
-123 -54 -232 -54 -243 0 -18 7 -20 75 -20 41 0 78 -1 82 -1 10 -2 20 19 28
54 5 27 7 28 62 25 56 -3 57 -4 64 -36 4 -18 9 -35 11 -37 6 -6 168 -9 174 -3
3 4 -71 370 -124 608 l-8 35 -106 3 c-59 1 -108 -1 -111 -5z"/>
<path d="M10967 2274 c-4 -4 -7 -151 -7 -326 0 -276 2 -318 15 -318 8 0 77 -1
153 -1 l137 0 0 73 0 73 -62 3 -63 3 -2 247 -3 247 -80 3 c-45 1 -84 0 -88 -4z"/>
<path d="M4563 1243 c-38 -7 -80 -61 -99 -126 -13 -47 -18 -97 -17 -207 0
-172 15 -240 67 -294 29 -31 39 -36 81 -36 121 0 165 91 165 344 0 105 -4 148
-20 198 -31 101 -86 139 -177 121z m87 -81 c37 -37 50 -104 50 -252 0 -194
-27 -270 -95 -270 -40 0 -69 32 -86 93 -17 63 -14 306 5 371 25 86 75 109 126
58z"/>
<path d="M6343 1236 c-38 -17 -77 -82 -92 -154 -6 -29 -11 -108 -11 -175 0
-230 48 -327 160 -327 112 0 160 99 160 328 0 177 -28 280 -85 318 -34 22 -94
27 -132 10z m107 -76 c39 -41 54 -138 47 -290 -8 -173 -32 -230 -97 -230 -71
0 -95 69 -95 270 0 163 13 229 53 260 35 28 59 25 92 -10z"/>
<path d="M7481 1235 c-76 -34 -111 -118 -118 -291 -8 -170 12 -258 71 -320 38
-40 47 -44 89 -44 66 0 99 17 95 49 -2 18 -8 25 -18 22 -8 -3 -34 -6 -57 -9
-36 -3 -46 0 -67 23 -35 38 -46 82 -53 207 -9 168 18 272 78 304 30 15 44 15
97 -1 19 -7 22 -4 22 23 0 25 -6 32 -31 41 -42 14 -67 13 -108 -4z"/>
<path d="M8275 1236 c-77 -34 -113 -121 -122 -291 -8 -177 24 -294 97 -342 58
-40 160 -26 160 22 0 25 -1 25 -55 19 -50 -6 -58 -4 -81 17 -40 37 -58 117
-58 254 1 142 19 210 67 251 31 26 46 27 105 9 19 -7 22 -4 22 23 0 17 -4 33
-9 36 -22 14 -98 15 -126 2z"/>
<path d="M8573 1234 c-75 -38 -108 -156 -100 -359 7 -158 24 -221 72 -264 30
-26 44 -31 85 -31 41 0 55 5 84 30 52 47 68 103 73 265 7 200 -16 301 -79 348
-35 26 -96 31 -135 11z m99 -64 c40 -31 53 -96 53 -270 -1 -137 -3 -161 -22
-202 -23 -50 -51 -66 -97 -54 -52 13 -82 145 -73 321 7 126 19 171 54 203 30
27 53 28 85 2z"/>
<path d="M3500 916 l0 -326 30 0 30 0 -2 323 -3 322 -27 3 -28 3 0 -325z"/>
<path d="M3726 1232 c-3 -6 -17 -93 -31 -194 -28 -206 -53 -379 -61 -420 -5
-26 -3 -28 25 -28 37 0 34 -12 61 225 12 99 25 194 29 210 l8 30 6 -25 c4 -14
18 -106 32 -205 35 -247 32 -235 60 -235 29 0 27 -10 70 250 20 118 38 217 40
219 7 7 14 -45 30 -219 23 -257 21 -250 56 -250 16 0 29 1 29 3 -2 55 -82 633
-88 639 -6 6 -18 8 -28 6 -16 -3 -24 -38 -59 -245 -22 -133 -43 -244 -46 -248
-4 -3 -17 61 -29 142 -52 344 -53 348 -77 351 -11 2 -24 -1 -27 -6z"/>
<path d="M4158 1234 c-5 -4 -8 -151 -8 -326 l0 -318 30 0 29 0 3 153 3 152 51
6 c97 12 129 55 128 176 -1 115 -38 153 -157 161 -40 2 -75 1 -79 -4z m151
-80 c28 -35 30 -142 4 -172 -22 -24 -75 -36 -92 -19 -12 12 -16 199 -4 210 3
4 21 7 39 7 23 0 38 -8 53 -26z"/>
<path d="M4858 1234 c-5 -4 -8 -151 -8 -326 l0 -318 30 0 30 0 0 140 c0 77 4
140 8 140 4 0 35 -63 67 -140 60 -139 60 -140 93 -140 17 0 32 1 32 3 0 2 -29
67 -65 146 -36 79 -65 147 -65 152 0 5 17 16 38 25 51 20 72 64 72 150 0 76
-18 126 -55 150 -28 18 -164 32 -177 18z m139 -62 c31 -20 44 -127 21 -177
-10 -23 -27 -32 -68 -36 -39 -4 -40 -1 -40 111 l0 110 38 0 c20 0 42 -4 49 -8z"/>
<path d="M5122 1213 c3 -25 8 -29 48 -33 l45 -5 3 -292 2 -293 30 0 30 0 0
295 0 295 44 0 c33 0 45 4 48 18 10 39 1 42 -128 42 l-125 0 3 -27z"/>
<path d="M5615 1219 c-3 -13 -4 -159 -3 -324 l3 -300 30 0 30 0 3 151 3 152
50 4 c96 10 134 68 126 189 -7 108 -40 138 -157 146 -77 6 -79 5 -85 -18z
m149 -52 c38 -28 43 -159 7 -191 -9 -8 -32 -17 -51 -18 l-35 -3 -3 113 -3 112
34 0 c18 0 41 -6 51 -13z"/>
<path d="M5925 1229 c-3 -8 -4 -154 -3 -324 l3 -310 33 -3 32 -3 0 148 c1 119
3 144 12 128 15 -25 73 -153 100 -222 19 -49 23 -53 54 -53 19 0 34 1 34 3 0
2 -9 21 -19 43 -41 86 -111 245 -111 253 0 5 17 18 38 28 50 24 72 71 72 151
0 74 -18 124 -55 148 -36 23 -182 33 -190 13z m156 -68 c20 -16 24 -28 24 -83
0 -84 -16 -115 -64 -121 -20 -2 -39 -2 -43 0 -5 2 -8 53 -8 114 l0 109 34 0
c19 0 44 -9 57 -19z"/>
<path d="M6650 926 c0 -174 -1 -319 -2 -323 -2 -5 29 -9 69 -11 103 -4 137 12
170 84 46 101 44 386 -4 481 -29 58 -59 74 -152 80 l-81 6 0 -317z m153 234
c42 -33 52 -80 52 -245 0 -119 -4 -159 -18 -195 -18 -49 -57 -80 -101 -80
l-26 0 0 270 0 270 34 0 c18 0 45 -9 59 -20z"/>
<path d="M7007 1233 c-12 -11 -8 -511 4 -559 17 -65 55 -94 128 -94 64 0 92
15 119 63 15 28 17 65 17 312 l0 280 -26 3 c-20 2 -28 -2 -33 -20 -3 -13 -6
-138 -6 -278 0 -293 -2 -300 -70 -300 -32 0 -43 5 -57 27 -16 24 -18 57 -21
273 -1 135 -2 257 -2 273 0 22 -4 27 -23 27 -13 0 -27 -3 -30 -7z"/>
<path d="M7707 1234 c-4 -4 -7 -151 -7 -326 l0 -318 100 0 100 0 0 25 c0 24
-2 25 -70 25 l-71 0 3 128 3 127 65 5 c57 4 65 8 65 25 0 17 -8 21 -65 25
l-65 5 -3 112 -3 112 68 3 c65 3 68 4 68 28 0 25 -1 25 -90 28 -50 1 -94 0
-98 -4z"/>
<path d="M8880 916 l0 -326 30 0 30 0 0 140 c0 77 3 140 8 140 4 0 34 -63 67
-140 59 -139 60 -140 92 -140 l33 0 -14 33 c-7 17 -37 83 -65 144 -28 62 -51
117 -51 122 0 5 17 18 38 28 50 24 72 71 72 151 0 124 -36 163 -161 170 l-79
5 0 -327z m153 246 c23 -25 31 -98 18 -150 -12 -43 -21 -49 -81 -55 l-25 -2
-3 113 -3 112 39 0 c25 0 45 -7 55 -18z"/>
<path d="M9210 915 l0 -325 30 0 29 0 3 153 3 152 50 6 c101 12 130 56 123
185 -4 71 -8 88 -28 109 -29 31 -77 45 -152 45 l-58 0 0 -325z m151 246 c18
-14 23 -31 27 -78 6 -79 -14 -118 -63 -127 -19 -4 -40 -4 -45 -1 -11 7 -14
208 -3 218 13 13 61 7 84 -12z"/>
</g>
</svg>
